<svg version="1.1" xmlns="http://www.w3.org/2000/svg" viewBox="0 0 876.5867056535747 455.5826035116605" width="2629.760116960724" height="1366.7478105349815">
  <!-- svg-source:excalidraw -->

  <defs>
    <style class="style-fonts">
      @font-face {
      font-family: "Virgil";
      src: url("/fonts/virgil/Virgil.woff2");
      }
    </style>
  </defs>
  <g stroke-linecap="round" transform="translate(10 44.68126783154244) rotate(0 127.80059899788503 200.22767597337153)"><path d="M32 0 M32 0 C80.53 0.73, 127.14 -0.62, 223.6 0 M32 0 C73.02 0.61, 111.75 1.11, 223.6 0 M223.6 0 C245.73 -0.25, 255.55 11.75, 255.6 32 M223.6 0 C245.53 -0.8, 254.99 12.11, 255.6 32 M255.6 32 C257.53 158.86, 255.98 285.13, 255.6 368.46 M255.6 32 C255.78 144.03, 255.82 256.61, 255.6 368.46 M255.6 368.46 C257.58 389.95, 245.8 400.02, 223.6 400.46 M255.6 368.46 C255.44 389.25, 243.78 401.31, 223.6 400.46 M223.6 400.46 C173.62 401.4, 125.13 402.03, 32 400.46 M223.6 400.46 C167.21 399.52, 109.12 399.97, 32 400.46 M32 400.46 C11.3 399.27, 0.28 388.44, 0 368.46 M32 400.46 C9.02 399.5, -1.15 390.38, 0 368.46 M0 368.46 C1.02 281.71, -0.43 197.87, 0 32 M0 368.46 C1.32 263.66, 1.5 157.31, 0 32 M0 32 C-1.74 9.11, 9.47 -0.63, 32 0 M0 32 C0.58 10.01, 9.2 -0.15, 32 0" stroke="#1e1e1e" stroke-width="1" fill="none"></path></g><g transform="translate(44.86401219983969 13.235866062937305) rotate(0 92.6799545288086 12.5)"><text x="92.6799545288086" y="0" font-family="Virgil, Segoe UI Emoji" font-size="20px" fill="#1e1e1e" text-anchor="middle" style="white-space: pre;" direction="ltr" dominant-baseline="text-before-edge">Синхронные задачи</text></g><g transform="translate(20.809161336083207 65.43622517778306) rotate(0 89.0639419555664 10)"><text x="89.0639419555664" y="0" font-family="Virgil, Segoe UI Emoji" font-size="16px" fill="#1e1e1e" text-anchor="middle" style="white-space: pre;" direction="ltr" dominant-baseline="text-before-edge">Step 1: In global scope</text></g><g transform="translate(19.54286447579625 101.51653178687579) rotate(0 121.9759216308594 10)"><text x="121.97592163085938" y="0" font-family="Virgil, Segoe UI Emoji" font-size="16px" fill="#1e1e1e" text-anchor="middle" style="white-space: pre;" direction="ltr" dominant-baseline="text-before-edge">Step 3: In promise constructor</text></g><g stroke-linecap="round" transform="translate(308.80257200039733 45.12725156491743) rotate(0 121.42340066145266 200.22767597337153)"><path d="M32 0 M32 0 C94.6 -0.69, 152.56 -1.18, 210.85 0 M32 0 C99.7 -0.18, 169.47 0.44, 210.85 0 M210.85 0 C232.91 0.97, 243.08 10.24, 242.85 32 M210.85 0 C232.38 -0.36, 241.81 8.79, 242.85 32 M242.85 32 C243.68 144.55, 242.73 255.23, 242.85 368.46 M242.85 32 C242.55 126.24, 242.59 219.26, 242.85 368.46 M242.85 368.46 C241.56 389.07, 233.25 400.93, 210.85 400.46 M242.85 368.46 C242.37 391.81, 231.02 401.49, 210.85 400.46 M210.85 400.46 C173.63 399.21, 133.15 397.71, 32 400.46 M210.85 400.46 C173.99 399.89, 138.71 401.22, 32 400.46 M32 400.46 C11.26 400.35, -2 389.96, 0 368.46 M32 400.46 C12.39 399.51, -1.81 391, 0 368.46 M0 368.46 C0.51 274.53, -0.42 183.43, 0 32 M0 368.46 C0.68 255.34, 0.28 141.55, 0 32 M0 32 C1.41 11.07, 9.97 -1.56, 32 0 M0 32 C-0.47 10.45, 11.33 0.72, 32 0" stroke="#1e1e1e" stroke-width="1" fill="none"></path></g><g transform="translate(361.02212314930847 14.316901108571898) rotate(0 65.23995971679688 12.5)"><text x="65.23995971679688" y="0" font-family="Virgil, Segoe UI Emoji" font-size="20px" fill="#1e1e1e" text-anchor="middle" style="white-space: pre;" direction="ltr" dominant-baseline="text-before-edge">Микро-задачи</text></g><g transform="translate(324.58762935221426 65.3317554044655) rotate(0 61.439964294433594 10)"><text x="61.439964294433594" y="0" font-family="Virgil, Segoe UI Emoji" font-size="16px" fill="#1e1e1e" text-anchor="middle" style="white-space: pre;" direction="ltr" dominant-baseline="text-before-edge">Step 4: In then</text></g><g transform="translate(323.1374078961159 96.39831230216745) rotate(0 95.05594635009766 10)"><text x="95.05594635009766" y="0" font-family="Virgil, Segoe UI Emoji" font-size="16px" fill="#1e1e1e" text-anchor="middle" style="white-space: pre;" direction="ltr" dominant-baseline="text-before-edge">Step 5: In another then</text></g><g stroke-linecap="round" transform="translate(595.0379696526661 41.64979915118303) rotate(0 135.77436800045427 200.22767597337153)"><path d="M32 0 M32 0 C107.18 -0.04, 182.49 -0.72, 239.55 0 M32 0 C87.06 -1.79, 139.79 -2.15, 239.55 0 M239.55 0 C261.78 -0.15, 272.27 11.64, 271.55 32 M239.55 0 C261.14 -0.49, 271.75 10.31, 271.55 32 M271.55 32 C269.94 118.44, 270.14 203.73, 271.55 368.46 M271.55 32 C269.54 119.95, 268.98 208.67, 271.55 368.46 M271.55 368.46 C270.19 388.09, 259.59 399.74, 239.55 400.46 M271.55 368.46 C272.78 390.34, 260.4 402.47, 239.55 400.46 M239.55 400.46 C188.01 397.3, 137.17 399.22, 32 400.46 M239.55 400.46 C183.88 398.82, 128.36 397.97, 32 400.46 M32 400.46 C12.62 401.47, 0.59 389.68, 0 368.46 M32 400.46 C8.37 400.65, 1.73 388.84, 0 368.46 M0 368.46 C-1.62 292.8, -1.4 218.36, 0 32 M0 368.46 C-1.01 296.27, -0.35 224.28, 0 32 M0 32 C0.75 11.94, 12.07 0.4, 32 0 M0 32 C-0.8 8.87, 10.19 -0.22, 32 0" stroke="#1e1e1e" stroke-width="1" fill="none"></path></g><g transform="translate(646.8370236617179 10) rotate(0 66.2699584960938 12.5)"><text x="66.26995849609375" y="0" font-family="Virgil, Segoe UI Emoji" font-size="20px" fill="#1e1e1e" text-anchor="middle" style="white-space: pre;" direction="ltr" dominant-baseline="text-before-edge">Макро-задачи</text></g><g transform="translate(605.2826368098504 62.1594796383302) rotate(0 89.79195404052734 10)"><text x="89.79195404052734" y="0" font-family="Virgil, Segoe UI Emoji" font-size="16px" fill="#1e1e1e" text-anchor="middle" style="white-space: pre;" direction="ltr" dominant-baseline="text-before-edge">Step 2: In setTimeout</text></g><g transform="translate(605.3043675971512 94.92480589345789) rotate(0 123.0079345703125 10)"><text x="123.0079345703125" y="0" font-family="Virgil, Segoe UI Emoji" font-size="16px" fill="#1e1e1e" text-anchor="middle" style="white-space: pre;" direction="ltr" dominant-baseline="text-before-edge">Step 6: In another setTimeout</text></g><g stroke-linecap="round"><g transform="translate(277.7242338646718 225.05482175764408) rotate(0 10.187507692919326 0.45584529617397607)"><path d="M0.6 0.57 C3.93 0.56, 17.45 -0.17, 20.92 -0.29 M-0.55 -0.17 C2.56 0.03, 16.43 0.98, 20.01 1.2" stroke="#1e1e1e" stroke-width="1" fill="none"></path></g><g transform="translate(277.7242338646718 225.05482175764408) rotate(0 10.187507692919326 0.45584529617397607)"><path d="M10.49 4.17 C13.69 3.46, 17.57 2.57, 20.21 0.3 M10.45 3.61 C13.7 2.83, 16.79 1.85, 19.84 0.92" stroke="#1e1e1e" stroke-width="1" fill="none"></path></g><g transform="translate(277.7242338646718 225.05482175764408) rotate(0 10.187507692919326 0.45584529617397607)"><path d="M10.96 -2.95 C13.97 -0.98, 17.67 0.8, 20.21 0.3 M10.92 -3.51 C13.97 -1.73, 16.9 -0.16, 19.84 0.92" stroke="#1e1e1e" stroke-width="1" fill="none"></path></g></g><mask></mask><g stroke-linecap="round"><g transform="translate(563.7352202239854 223.8833564951312) rotate(0 10.657518385625963 0.25039742413127897)"><path d="M-0.58 0.72 C2.97 0.79, 18.25 -0.36, 21.9 -0.53 M1.31 0.05 C4.75 0.41, 18.28 0.84, 21.52 1.03" stroke="#1e1e1e" stroke-width="1" fill="none"></path></g><g transform="translate(563.7352202239854 223.8833564951312) rotate(0 10.657518385625963 0.25039742413127897)"><path d="M12.22 5.1 C15.11 3.54, 18.78 2.97, 21.41 0.78 M11.61 4.66 C14.04 2.98, 15.71 2.93, 21.4 1.35" stroke="#1e1e1e" stroke-width="1" fill="none"></path></g><g transform="translate(563.7352202239854 223.8833564951312) rotate(0 10.657518385625963 0.25039742413127897)"><path d="M12.54 -2.01 C15.26 -1.09, 18.83 0.82, 21.41 0.78 M11.93 -2.45 C14.28 -2.48, 15.89 -0.88, 21.4 1.35" stroke="#1e1e1e" stroke-width="1" fill="none"></path></g></g><mask></mask></svg>
