<svg version="1.1" xmlns="http://www.w3.org/2000/svg" viewBox="0 0 1000.0179869156357 1013.5995281673064" width="3000.0539607469073" height="3040.7985845019193">
  <!-- svg-source:excalidraw -->

  <defs>
    <style class="style-fonts">
      @font-face {
      font-family: "Virgil";
      src: url("/fonts/virgil/Virgil.woff2");
      }
    </style>
  </defs>

  <g stroke-linecap="round" transform="translate(22.518711953520153 117.72183322230924) rotate(0 113.5 30)"><path d="M15 0 M15 0 C84.03 -0.04, 153.79 0.08, 212 0 M15 0 C67.82 -1.95, 120.26 -1.9, 212 0 M212 0 C221.77 -0.52, 226.77 5.01, 227 15 M212 0 C220.94 -0.09, 226.21 5.74, 227 15 M227 15 C228.83 24.17, 227.53 36.72, 227 45 M227 15 C225.94 23.65, 227.65 34.06, 227 45 M227 45 C228.73 54.44, 222.65 58.01, 212 60 M227 45 C225.17 54.5, 221.37 60.29, 212 60 M212 60 C144.96 59.56, 76.57 58.39, 15 60 M212 60 C139.55 61.43, 67.39 62.33, 15 60 M15 60 C4.04 61.9, 0.5 55.64, 0 45 M15 60 C5.59 59.58, 0.19 56.05, 0 45 M0 45 C-0.68 36.44, 1.77 26.52, 0 15 M0 45 C0.52 35.64, 0.82 26.36, 0 15 M0 15 C1.15 4.1, 5.57 -0.38, 15 0 M0 15 C0.46 5.44, 2.9 -1.76, 15 0" stroke="#1e1e1e" stroke-width="1" fill="none"></path></g><g transform="translate(59.21876993691859 135.22183322230924) rotate(0 76.79994201660156 12.5)"><text x="76.79994201660156" y="0" font-family="Virgil, Segoe UI Emoji" font-size="20px" fill="#1e1e1e" text-anchor="middle" style="white-space: pre;" direction="ltr" dominant-baseline="text-before-edge">Step 4: In then</text></g><g stroke-linecap="round" transform="translate(354.2556146480385 713.172472008956) rotate(0 134.5 30)"><path d="M15 0 M15 0 C82.38 0.19, 147.15 -0.65, 254 0 M15 0 C89.76 -0.87, 163.23 -2.18, 254 0 M254 0 C263.94 -0.43, 270.58 6.36, 269 15 M254 0 C265.23 1.19, 268.65 4.84, 269 15 M269 15 C270.64 25.15, 268.18 32.68, 269 45 M269 15 C268.83 23.04, 269 33.51, 269 45 M269 45 C267.55 53.24, 264.22 60.67, 254 60 M269 45 C269.63 52.96, 265 60.15, 254 60 M254 60 C190.51 61.24, 126.94 58.6, 15 60 M254 60 C183.42 58.77, 113.23 57.97, 15 60 M15 60 C5.61 59.11, -0.08 53.53, 0 45 M15 60 C5.94 58.73, 2.08 54.05, 0 45 M0 45 C0.91 37.19, 1.3 27.68, 0 15 M0 45 C-0.99 33.87, -0.06 21.99, 0 15 M0 15 C-1.24 5.39, 4.63 1.1, 15 0 M0 15 C-2.14 3.92, 6.37 -1.34, 15 0" stroke="#1e1e1e" stroke-width="1" fill="none"></path></g><g transform="translate(411.9556726314369 730.672472008956) rotate(0 76.79994201660156 12.5)"><text x="76.79994201660156" y="0" font-family="Virgil, Segoe UI Emoji" font-size="20px" fill="#1e1e1e" text-anchor="middle" style="white-space: pre;" direction="ltr" dominant-baseline="text-before-edge">Step 4: In then</text></g><g stroke-linecap="round" transform="translate(697.6447499838321 120.7552227912976) rotate(0 137.99999999999994 30)"><path d="M15 0 M15 0 C67.73 0.4, 121.36 -1.1, 261 0 M15 0 C105.66 1.13, 196.82 0.36, 261 0 M261 0 C271.13 1.83, 274.6 3.01, 276 15 M261 0 C269.95 1.8, 273.76 6.35, 276 15 M276 15 C275.1 27.33, 274.01 34.77, 276 45 M276 15 C276.97 24.56, 275.48 34.85, 276 45 M276 45 C277.28 54.94, 272.33 60.5, 261 60 M276 45 C275.75 55.36, 270.66 59.31, 261 60 M261 60 C176.62 60.7, 91.98 61.89, 15 60 M261 60 C190.85 59.37, 120.44 58.11, 15 60 M15 60 C4.11 59.68, 1.73 54.69, 0 45 M15 60 C2.78 60.6, -1.09 54.26, 0 45 M0 45 C0.21 32.48, -0.26 23.34, 0 15 M0 45 C-0.35 36.64, 0.49 29.32, 0 15 M0 15 C-0.77 4.01, 6.29 1.85, 15 0 M0 15 C-1.79 3.53, 5.67 -0.28, 15 0" stroke="#1e1e1e" stroke-width="1" fill="none"></path></g><g transform="translate(716.8248418417422 138.2552227912976) rotate(0 118.81990814208979 12.5)"><text x="118.81990814208984" y="0" font-family="Virgil, Segoe UI Emoji" font-size="20px" fill="#1e1e1e" text-anchor="middle" style="white-space: pre;" direction="ltr" dominant-baseline="text-before-edge">Step 5: In another then</text></g><g stroke-linecap="round" transform="translate(353.2144465461027 854.4687393874619) rotate(0 137 30)"><path d="M15 0 M15 0 C89.76 0.9, 168.32 0.62, 259 0 M15 0 C67.72 0.01, 118.92 -0.88, 259 0 M259 0 C267.75 -1.29, 273.47 5.67, 274 15 M259 0 C267.73 -1.05, 272.58 3.79, 274 15 M274 15 C272.48 25.16, 274.4 33.51, 274 45 M274 15 C274.73 21.85, 273.97 29.74, 274 45 M274 45 C273.88 54.19, 267.82 60.95, 259 60 M274 45 C274.4 55.07, 269.32 60.47, 259 60 M259 60 C191.35 57.17, 124.17 57.86, 15 60 M259 60 C180.82 59.04, 100.93 58.02, 15 60 M15 60 C6.26 58.47, 1.15 55.18, 0 45 M15 60 C3.03 58.88, 2.01 56.83, 0 45 M0 45 C0.2 34.24, 1.98 21.34, 0 15 M0 45 C-0.82 33.86, 0.82 21.04, 0 15 M0 15 C-0.5 6.77, 3.91 -1.03, 15 0 M0 15 C-2.22 4.88, 5.58 -0.39, 15 0" stroke="#1e1e1e" stroke-width="1" fill="none"></path></g><g transform="translate(371.39453840401285 871.9687393874619) rotate(0 118.81990814208984 12.5)"><text x="118.81990814208984" y="0" font-family="Virgil, Segoe UI Emoji" font-size="20px" fill="#1e1e1e" text-anchor="middle" style="white-space: pre;" direction="ltr" dominant-baseline="text-before-edge">Step 5: In another then</text></g><g stroke-linecap="round" transform="translate(699.046213054376 193.74598961511307) rotate(0 138.00000000000006 30)"><path d="M15 0 M15 0 C112.64 -1.67, 207.13 -0.86, 261 0 M15 0 C65.13 -2.08, 114.39 -0.99, 261 0 M261 0 C271.86 -0.52, 277.63 4.31, 276 15 M261 0 C271.9 0.59, 275.84 7.08, 276 15 M276 15 C275.9 25.33, 274.94 36.74, 276 45 M276 15 C276.85 25.82, 276.08 37.03, 276 45 M276 45 C276.89 54.79, 270.54 58.06, 261 60 M276 45 C277.77 55.77, 270.04 58.41, 261 60 M261 60 C192.1 58.09, 122.9 59.16, 15 60 M261 60 C175.71 58.33, 88.92 58.25, 15 60 M15 60 C6.21 61.23, -1.02 55.6, 0 45 M15 60 C3.57 61.5, -1.52 53.18, 0 45 M0 45 C-1.3 37.04, 1.34 30.83, 0 15 M0 45 C0.27 38.6, 0.19 33.3, 0 15 M0 15 C0.42 5.68, 3.05 1.6, 15 0 M0 15 C-1.1 3.59, 5.7 1.36, 15 0" stroke="#1e1e1e" stroke-width="1" fill="none"></path></g><g transform="translate(718.3163012501768 211.24598961511307) rotate(0 118.72991180419928 12.5)"><text x="118.72991180419922" y="0" font-family="Virgil, Segoe UI Emoji" font-size="20px" fill="#1e1e1e" text-anchor="middle" style="white-space: pre;" direction="ltr" dominant-baseline="text-before-edge">Step 9: In another then</text></g><g stroke-linecap="round" transform="translate(352.61590961664666 927.4595062112774) rotate(0 138 30)"><path d="M15 0 M15 0 C76.61 -0.23, 133.58 1.24, 261 0 M15 0 C96.09 -1.78, 176.84 -2.04, 261 0 M261 0 C270.47 0.67, 274.9 4.09, 276 15 M261 0 C269.58 -1.21, 276.34 5.76, 276 15 M276 15 C276.06 24.93, 274.76 35.21, 276 45 M276 15 C276.27 23.31, 276.18 31.75, 276 45 M276 45 C274.82 55.95, 271.35 60.06, 261 60 M276 45 C276.32 55.47, 270.39 60.84, 261 60 M261 60 C204.24 57.74, 150.42 59.12, 15 60 M261 60 C207.57 61.51, 155.12 61.17, 15 60 M15 60 C6.15 60.18, -1.71 54.03, 0 45 M15 60 C7.01 61.83, 1.41 53.56, 0 45 M0 45 C1.79 34.5, 1.76 28.44, 0 15 M0 45 C1.12 36.61, -0.03 30.47, 0 15 M0 15 C-1.09 3.97, 3.07 -0.1, 15 0 M0 15 C0.58 4.61, 4.89 1.25, 15 0" stroke="#1e1e1e" stroke-width="1" fill="none"></path></g><g transform="translate(371.88599781244744 944.9595062112774) rotate(0 118.72991180419922 12.5)"><text x="118.72991180419922" y="0" font-family="Virgil, Segoe UI Emoji" font-size="20px" fill="#1e1e1e" text-anchor="middle" style="white-space: pre;" direction="ltr" dominant-baseline="text-before-edge">Step 9: In another then</text></g><g stroke-linecap="round" transform="translate(21.86431445932533 190.33753625430623) rotate(0 114.5 30)"><path d="M15 0 M15 0 C93.33 0.88, 172.64 0.15, 214 0 M15 0 C81.34 -1.62, 149.45 -0.59, 214 0 M214 0 C223.14 1.32, 229.32 4.32, 229 15 M214 0 C225.45 -0.92, 231.24 3.31, 229 15 M229 15 C230.16 28.46, 226.99 37.73, 229 45 M229 15 C229.66 23.81, 228.59 31.93, 229 45 M229 45 C230.48 56.38, 225.58 59.1, 214 60 M229 45 C231.09 56.59, 224.23 59.71, 214 60 M214 60 C137.79 59.69, 64.02 58.15, 15 60 M214 60 C163.61 61.02, 114.06 61.76, 15 60 M15 60 C5.99 58.58, -1.19 53.19, 0 45 M15 60 C6.43 59.55, 1.73 52.84, 0 45 M0 45 C-0.41 35.88, -0.38 25.34, 0 15 M0 45 C0.07 33.31, 0.31 21.2, 0 15 M0 15 C1.36 6.08, 5 -1.32, 15 0 M0 15 C-1.29 4.81, 6.83 -0.66, 15 0" stroke="#1e1e1e" stroke-width="1" fill="none"></path></g><g transform="translate(58.314372442723766 207.83753625430623) rotate(0 78.04994201660156 12.5)"><text x="78.04994201660156" y="0" font-family="Virgil, Segoe UI Emoji" font-size="20px" fill="#1e1e1e" text-anchor="middle" style="white-space: pre;" direction="ltr" dominant-baseline="text-before-edge">Step 8: In then</text></g><g stroke-linecap="round" transform="translate(353.6012171538436 785.788175040953) rotate(0 136 30)"><path d="M15 0 M15 0 C97.2 -1.05, 181.78 -1.38, 257 0 M15 0 C107.28 -2.38, 200.01 -2.03, 257 0 M257 0 C268.58 1.36, 273.07 6.03, 272 15 M257 0 C266.65 -0.16, 272.09 6.97, 272 15 M272 15 C271.13 24.61, 272.13 33.99, 272 45 M272 15 C272.2 27.5, 271.28 37.64, 272 45 M272 45 C272.22 55.67, 267.55 58.23, 257 60 M272 45 C273 55.15, 266.24 59.59, 257 60 M257 60 C188.76 60.78, 119.23 60.77, 15 60 M257 60 C202.21 60.25, 149.27 60.37, 15 60 M15 60 C4.92 58.53, 0.82 53.89, 0 45 M15 60 C7.08 59.05, -0.2 57.12, 0 45 M0 45 C1.4 34.77, 1.66 24.31, 0 15 M0 45 C0.24 34.21, -0.33 22.62, 0 15 M0 15 C-0.37 6.1, 3.14 -0.94, 15 0 M0 15 C1.37 3.66, 6.94 2.2, 15 0" stroke="#1e1e1e" stroke-width="1" fill="none"></path></g><g transform="translate(411.55127513724204 803.288175040953) rotate(0 78.04994201660156 12.5)"><text x="78.04994201660156" y="0" font-family="Virgil, Segoe UI Emoji" font-size="20px" fill="#1e1e1e" text-anchor="middle" style="white-space: pre;" direction="ltr" dominant-baseline="text-before-edge">Step 8: In then</text></g><g transform="translate(33.56272833692461 10) rotate(0 163.7579345703125 17.5)"><text x="163.7579345703125" y="0" font-family="Virgil, Segoe UI Emoji" font-size="28px" fill="#1e1e1e" text-anchor="middle" style="white-space: pre;" direction="ltr" dominant-baseline="text-before-edge">Выполнение микротасок</text></g><g stroke-linecap="round" transform="translate(682.9644326667781 70.10469182271382) rotate(0 153.5267771244288 168.0245886943493)"><path d="M32 0 M32 0 C129.16 -1.06, 227.2 -2.01, 275.05 0 M32 0 C112.92 -1.4, 192.68 -1.13, 275.05 0 M275.05 0 C297.2 -1.72, 305.08 9.88, 307.05 32 M275.05 0 C298.07 -1.82, 307.74 11.36, 307.05 32 M307.05 32 C305.68 127.75, 303.87 220.48, 307.05 304.05 M307.05 32 C307.37 133.08, 307.48 234.22, 307.05 304.05 M307.05 304.05 C305.52 325.21, 295.1 334.2, 275.05 336.05 M307.05 304.05 C305.98 323.99, 295.54 336.26, 275.05 336.05 M275.05 336.05 C218.56 337.19, 162.91 336.59, 32 336.05 M275.05 336.05 C178.22 335.87, 82.25 335.6, 32 336.05 M32 336.05 C12.63 335.64, -1.77 324.3, 0 304.05 M32 336.05 C9.88 336.56, 0.47 323.23, 0 304.05 M0 304.05 C2.78 196.54, 0.23 90.13, 0 32 M0 304.05 C-2.06 227.87, -0.92 150.89, 0 32 M0 32 C-1.91 9.19, 12.55 -1.82, 32 0 M0 32 C1.27 12.58, 12.5 -1.99, 32 0" stroke="#1e1e1e" stroke-width="1" fill="none"></path></g><g transform="translate(700.0089553801811 81.68777892536386) rotate(0 115.7799301147461 12.5)"><text x="115.7799301147461" y="0" font-family="Virgil, Segoe UI Emoji" font-size="20px" fill="#1e1e1e" text-anchor="middle" style="white-space: pre;" direction="ltr" dominant-baseline="text-before-edge">Следующие микрозадачи</text></g><g stroke-linecap="round"><g transform="translate(262.493981796209 144.59177893555017) rotate(0 216.16978061690455 -7.429241882741671)"><path d="M0.23 -0.09 C36.2 -2.37, 144.08 -14.52, 216.06 -14.77 C288.04 -15.01, 396.45 -3.76, 432.11 -1.58" stroke="#1e1e1e" stroke-width="1.5" fill="none" stroke-dasharray="8 9"></path></g><g transform="translate(262.493981796209 144.59177893555017) rotate(0 216.16978061690455 -7.429241882741671)"><path d="M403.05 6.76 C412.8 5.63, 422.22 -0.33, 432.47 -1.27" stroke="#1e1e1e" stroke-width="1.5" fill="none"></path></g><g transform="translate(262.493981796209 144.59177893555017) rotate(0 216.16978061690455 -7.429241882741671)"><path d="M404.67 -13.7 C413.72 -8.32, 422.63 -7.79, 432.47 -1.27" stroke="#1e1e1e" stroke-width="1.5" fill="none"></path></g></g><mask></mask><g stroke-linecap="round"><g transform="translate(261.1453481617978 230.13157790205594) rotate(0 216.06655369547315 18.35087201945248)"><path d="M0.04 0.62 C36.17 6.5, 144.7 35.43, 216.71 36.07 C288.72 36.72, 396.11 9.79, 432.09 4.47" stroke="#1e1e1e" stroke-width="1.5" fill="none" stroke-dasharray="8 9"></path></g><g transform="translate(261.1453481617978 230.13157790205594) rotate(0 216.06655369547315 18.35087201945248)"><path d="M407.35 19.69 C413.7 14.61, 423.11 10.92, 433.39 2.57" stroke="#1e1e1e" stroke-width="1.5" fill="none"></path></g><g transform="translate(261.1453481617978 230.13157790205594) rotate(0 216.06655369547315 18.35087201945248)"><path d="M403.51 -0.46 C411.11 0.34, 421.65 2.55, 433.39 2.57" stroke="#1e1e1e" stroke-width="1.5" fill="none"></path></g></g><mask></mask><g transform="translate(288.8717161790263 163.9145302210621) rotate(0 171.33746337890628 37.679551815232244)"><text x="171.33746337890625" y="0" font-family="Virgil, Segoe UI Emoji" font-size="20.095760968123866px" fill="#1e1e1e" text-anchor="middle" style="white-space: pre;" direction="ltr" dominant-baseline="text-before-edge">1. Мы нашли еще "then"</text><text x="171.33746337890625" y="25.119701210154833" font-family="Virgil, Segoe UI Emoji" font-size="20.095760968123866px" fill="#1e1e1e" text-anchor="middle" style="white-space: pre;" direction="ltr" dominant-baseline="text-before-edge">поэтому пушим его в конец очереди</text><text x="171.33746337890625" y="50.239402420309666" font-family="Virgil, Segoe UI Emoji" font-size="20.095760968123866px" fill="#1e1e1e" text-anchor="middle" style="white-space: pre;" direction="ltr" dominant-baseline="text-before-edge">микротасок</text></g><g stroke-linecap="round" transform="translate(11.927428619420311 64.31913333189644) rotate(0 124.47928346018765 152.45944133388156)"><path d="M32 0 M32 0 C74.02 -1.65, 118.5 -1.49, 216.96 0 M32 0 C77.18 0.38, 122.98 1.55, 216.96 0 M216.96 0 C237.91 -1.66, 247.23 11.99, 248.96 32 M216.96 0 C236.21 2.24, 250.99 12.87, 248.96 32 M248.96 32 C249.91 120.88, 248.66 212.38, 248.96 272.92 M248.96 32 C249.16 87.66, 249.76 144.73, 248.96 272.92 M248.96 272.92 C249.37 293.05, 239.3 304.53, 216.96 304.92 M248.96 272.92 C250.3 294.94, 240.27 305.56, 216.96 304.92 M216.96 304.92 C171.33 303.99, 121.71 304.44, 32 304.92 M216.96 304.92 C165.25 303.76, 113.92 304.13, 32 304.92 M32 304.92 C10.56 305.18, -0.18 294.1, 0 272.92 M32 304.92 C12.56 307.13, -1.72 296.03, 0 272.92 M0 272.92 C-0.75 218.09, -0.73 164.52, 0 32 M0 272.92 C1 187.83, 0.99 103.57, 0 32 M0 32 C-0.04 9.4, 9.68 0.88, 32 0 M0 32 C0.38 11.44, 11.95 -1.58, 32 0" stroke="#1e1e1e" stroke-width="1" fill="none"></path></g><g stroke-linecap="round" transform="translate(343.6643313139386 659.7697721185432) rotate(0 146.51228620935524 171.9148780243816)"><path d="M32 0 M32 0 C100.96 -1.72, 165.7 -1.28, 261.02 0 M32 0 C96.25 -0.88, 159.46 -1.38, 261.02 0 M261.02 0 C282.43 1.71, 293.8 12.05, 293.02 32 M261.02 0 C283.55 -1.24, 292.4 10.58, 293.02 32 M293.02 32 C293.71 97.72, 296.13 161.74, 293.02 311.83 M293.02 32 C293.47 90.65, 293.59 150.7, 293.02 311.83 M293.02 311.83 C292.37 332.81, 282.05 344.23, 261.02 343.83 M293.02 311.83 C295.16 333.97, 280.86 343.66, 261.02 343.83 M261.02 343.83 C208.06 340.78, 152.84 342.94, 32 343.83 M261.02 343.83 C202.86 341.93, 144.77 342.05, 32 343.83 M32 343.83 C10.49 345.68, 0.93 334.35, 0 311.83 M32 343.83 C11.74 345.64, 0.19 335.27, 0 311.83 M0 311.83 C-0.68 226.5, -0.88 140.38, 0 32 M0 311.83 C-0.32 222.09, 0.85 132.63, 0 32 M0 32 C1.69 12.58, 9.84 1.03, 32 0 M0 32 C-1.66 11.18, 9.28 -1.92, 32 0" stroke="#1e1e1e" stroke-width="1" fill="none"></path></g><g transform="translate(27.185163519230912 80.23540424215176) rotate(0 105.85993957519531 12.5)"><text x="105.85993957519531" y="0" font-family="Virgil, Segoe UI Emoji" font-size="20px" fill="#1e1e1e" text-anchor="middle" style="white-space: pre;" direction="ltr" dominant-baseline="text-before-edge">Текущие микрозадачи</text></g><g transform="translate(424.4561093780159 674.0341663286617) rotate(0 61.129966735839844 12.5)"><text x="61.129966735839844" y="0" font-family="Virgil, Segoe UI Emoji" font-size="20px" fill="#1e1e1e" text-anchor="middle" style="white-space: pre;" direction="ltr" dominant-baseline="text-before-edge">Микрозадачи</text></g><g stroke-linecap="round"><g transform="translate(673.7155191621473 408.4968663862514) rotate(0 -207.8837268728063 13.571820118409079)"><path d="M0.22 0.77 C-34.92 8.44, -141.82 50.57, -211.19 47.08 C-280.56 43.6, -382.17 -9.04, -415.99 -20.14" stroke="#1e1e1e" stroke-width="1.5" fill="none" stroke-dasharray="8 9"></path></g><g transform="translate(673.7155191621473 408.4968663862514) rotate(0 -207.8837268728063 13.571820118409079)"><path d="M-384.73 -19.12 C-393.51 -20.64, -403.21 -17.82, -415.72 -20.38" stroke="#1e1e1e" stroke-width="1.5" fill="none"></path></g><g transform="translate(673.7155191621473 408.4968663862514) rotate(0 -207.8837268728063 13.571820118409079)"><path d="M-392.47 -0.11 C-399.3 -6.87, -406.88 -9.27, -415.72 -20.38" stroke="#1e1e1e" stroke-width="1.5" fill="none"></path></g></g><mask></mask><g transform="translate(290.91986938093754 483.8958151666426) rotate(0 175.97988891601562 25)"><text x="175.97988891601562" y="0" font-family="Virgil, Segoe UI Emoji" font-size="20px" fill="#1e1e1e" text-anchor="middle" style="white-space: pre;" direction="ltr" dominant-baseline="text-before-edge">2. Найденные новые микрозадачи</text><text x="175.97988891601562" y="25" font-family="Virgil, Segoe UI Emoji" font-size="20px" fill="#1e1e1e" text-anchor="middle" style="white-space: pre;" direction="ltr" dominant-baseline="text-before-edge">отправляются в очередь микрозадач</text></g><g stroke-linecap="round"><g transform="translate(10.28353199996053 630.0309178752495) rotate(0 484.79481673832373 -0.6029693609604578)"><path d="M-0.28 0.83 C161.38 0.54, 808.35 -1.72, 969.87 -2.03 M1.77 0.22 C163.27 0.16, 807.31 0.03, 968.88 -0.48" stroke="#1e1e1e" stroke-width="1" fill="none"></path></g></g><mask></mask></svg>
