<svg version="1.1" xmlns="http://www.w3.org/2000/svg" viewBox="0 0 1478.2857172775066 877.0164338841157" width="4434.85715183252" height="2631.049301652347">
  <!-- svg-source:excalidraw -->

  <g stroke-linecap="round" transform="translate(10 226.09920979862113) rotate(0 162.5 22.5)"><path d="M11.25 0 M11.25 0 C85.42 0.7, 156.84 -0.73, 313.75 0 M11.25 0 C128.96 -1.31, 248.26 -0.99, 313.75 0 M313.75 0 C321.36 1.2, 323.78 4.39, 325 11.25 M313.75 0 C322.19 -2.15, 326.73 5.67, 325 11.25 M325 11.25 C326.27 16.39, 323.7 24.57, 325 33.75 M325 11.25 C325.51 16.46, 324.72 22.16, 325 33.75 M325 33.75 C325.68 42.13, 320.08 46.7, 313.75 45 M325 33.75 C326.99 39.93, 322.27 43.21, 313.75 45 M313.75 45 C217.09 41.76, 119.97 41.69, 11.25 45 M313.75 45 C200.23 43.8, 85.57 44.76, 11.25 45 M11.25 45 C2 45.76, 1.99 39.73, 0 33.75 M11.25 45 C2.72 43.88, 1.67 41.78, 0 33.75 M0 33.75 C1 24.73, 1.41 18.03, 0 11.25 M0 33.75 C0.56 28.18, -0.38 22.65, 0 11.25 M0 11.25 C-0.82 3.35, 4.95 -1.02, 11.25 0 M0 11.25 C2.11 4.34, 5.41 0.06, 11.25 0" stroke="#1e1e1e" stroke-width="4" fill="none"></path></g><g transform="translate(126.76200866699219 231.09920979862113) rotate(0 45.73799133300781 17.5)"><text x="45.73799133300781" y="0" font-family="Virgil, Segoe UI Emoji" font-size="28px" fill="#1e1e1e" text-anchor="middle" style="white-space: pre;" direction="ltr" dominant-baseline="text-before-edge">GET /</text></g><g stroke-linecap="round" transform="translate(343.94773165465426 283.2231928216281) rotate(0 161 23.5)"><path d="M11.75 0 M11.75 0 C81.61 2.13, 149.73 1.54, 310.25 0 M11.75 0 C83.78 -2.01, 155.69 -2.07, 310.25 0 M310.25 0 C319.23 -0.61, 320.26 4.46, 322 11.75 M310.25 0 C317.48 0.32, 322.38 5.9, 322 11.75 M322 11.75 C322.37 17.47, 322.74 25.31, 322 35.25 M322 11.75 C321.31 17.71, 322.44 22.7, 322 35.25 M322 35.25 C320.17 42.12, 316.13 48.87, 310.25 47 M322 35.25 C323.32 44.19, 316.94 49.02, 310.25 47 M310.25 47 C236.04 49.18, 159.86 47.61, 11.75 47 M310.25 47 C227.1 46.29, 144.3 46.11, 11.75 47 M11.75 47 C3.54 47.8, 1.95 42.73, 0 35.25 M11.75 47 C2.91 46.27, -1.37 44.9, 0 35.25 M0 35.25 C-1.24 26.47, 1.96 17.71, 0 11.75 M0 35.25 C-0.91 30.9, 0.58 26.48, 0 11.75 M0 11.75 C-1.93 5.3, 2.78 -1.96, 11.75 0 M0 11.75 C0.02 3.62, 5.55 -2.06, 11.75 0" stroke="#1e1e1e" stroke-width="4" fill="none"></path></g><g transform="translate(459.64374605895114 289.2231928216281) rotate(0 45.303985595703125 17.5)"><text x="45.303985595703125" y="0" font-family="Virgil, Segoe UI Emoji" font-size="28px" fill="#1e1e1e" text-anchor="middle" style="white-space: pre;" direction="ltr" dominant-baseline="text-before-edge">Рендер</text></g><g stroke-linecap="round" transform="translate(713.3739949761932 335.32551577274523) rotate(0 142.14376261796338 22.5)"><path d="M11.25 0 M11.25 0 C110.51 -0.47, 207.27 -1.89, 273.04 0 M11.25 0 C63.72 0.85, 117.22 0.14, 273.04 0 M273.04 0 C280.73 1.2, 283.75 2.85, 284.29 11.25 M273.04 0 C281.88 0.78, 286.15 2.61, 284.29 11.25 M284.29 11.25 C284.26 16.12, 285.38 20.9, 284.29 33.75 M284.29 11.25 C283.66 20.73, 283.64 28.19, 284.29 33.75 M284.29 33.75 C285.31 39.8, 281.43 46.11, 273.04 45 M284.29 33.75 C284.95 42.39, 280.43 42.83, 273.04 45 M273.04 45 C182.06 46.56, 88.73 46.42, 11.25 45 M273.04 45 C218.89 45.78, 165.96 47.08, 11.25 45 M11.25 45 C4.34 45.33, -1.83 42.44, 0 33.75 M11.25 45 C3.7 46.7, 1.6 43.32, 0 33.75 M0 33.75 C-1.01 27.75, 1.55 17.89, 0 11.25 M0 33.75 C-0.55 25.37, -0.02 18.11, 0 11.25 M0 11.25 C0.59 2.09, 4.57 -0.87, 11.25 0 M0 11.25 C-2.27 2.05, 3.04 -0.38, 11.25 0" stroke="#1e1e1e" stroke-width="4" fill="none"></path></g><g transform="translate(737.931797205973 340.32551577274523) rotate(0 117.5859603881836 17.5)"><text x="117.5859603881836" y="0" font-family="Virgil, Segoe UI Emoji" font-size="28px" fill="#1e1e1e" text-anchor="middle" style="white-space: pre;" direction="ltr" dominant-baseline="text-before-edge">Отрисовка HTML</text></g><g stroke-linecap="round" transform="translate(1006.1879959846053 387.4962558942856) rotate(0 116 22.5)"><path d="M11.25 0 M11.25 0 C54.44 0.19, 95.12 0.39, 220.75 0 M11.25 0 C87.94 0.85, 162.82 1.87, 220.75 0 M220.75 0 C229.5 0.83, 233.75 3.47, 232 11.25 M220.75 0 C227.08 -0.62, 234.21 4.32, 232 11.25 M232 11.25 C231.05 15.76, 230.47 20.2, 232 33.75 M232 11.25 C232.17 17.45, 232.15 25.19, 232 33.75 M232 33.75 C231.63 39.93, 227.92 46.81, 220.75 45 M232 33.75 C232.83 40.19, 228.14 45.83, 220.75 45 M220.75 45 C152.83 46.85, 86.04 44.46, 11.25 45 M220.75 45 C137.63 47.22, 55.91 46.99, 11.25 45 M11.25 45 C3.96 46.68, -1.23 41.1, 0 33.75 M11.25 45 C3.91 44.1, 0 40.61, 0 33.75 M0 33.75 C0.65 29.3, -1.43 22.57, 0 11.25 M0 33.75 C0.95 25.93, 0.09 19.9, 0 11.25 M0 11.25 C0.73 3.51, 4.18 -1.45, 11.25 0 M0 11.25 C0.52 2.86, 5.31 -1.75, 11.25 0" stroke="#1e1e1e" stroke-width="4" fill="none"></path></g><g transform="translate(1059.3280182624374 392.4962558942856) rotate(0 62.85997772216797 17.5)"><text x="62.85997772216797" y="0" font-family="Virgil, Segoe UI Emoji" font-size="28px" fill="#1e1e1e" text-anchor="middle" style="white-space: pre;" direction="ltr" dominant-baseline="text-before-edge">Гидрация</text></g><g stroke-linecap="round"><g transform="translate(685.7270681491957 80.7614845501023) rotate(0 2.982288992621818 232.1456804616422)"><path d="M-0.58 -0.96 C0.26 76.45, 3.14 387.62, 4.16 465.25 M1.31 1.15 C2.63 78.17, 5.9 386.75, 6.55 463.7" stroke="#1e1e1e" stroke-width="4" fill="none"></path></g></g><mask></mask><g transform="translate(316.4504723731766 585.6229215681659) rotate(0 188.2859344482422 35)"><text x="188.2859344482422" y="0" font-family="Virgil, Segoe UI Emoji" font-size="28px" fill="#1e1e1e" text-anchor="middle" style="white-space: pre;" direction="ltr" dominant-baseline="text-before-edge">Сервер должен зарендерить</text><text x="188.2859344482422" y="35" font-family="Virgil, Segoe UI Emoji" font-size="28px" fill="#1e1e1e" text-anchor="middle" style="white-space: pre;" direction="ltr" dominant-baseline="text-before-edge">часть приложения</text></g><g transform="translate(947.534951815345 156.09835936090462) rotate(0 120.02197265625 35)"><text x="120.02197265625" y="0" font-family="Virgil, Segoe UI Emoji" font-size="28px" fill="#1e1e1e" text-anchor="middle" style="white-space: pre;" direction="ltr" dominant-baseline="text-before-edge">Где-то тут будет</text><text x="120.02197265625" y="35" font-family="Virgil, Segoe UI Emoji" font-size="28px" fill="#1e1e1e" text-anchor="middle" style="white-space: pre;" direction="ltr" dominant-baseline="text-before-edge">FCP</text></g><g transform="translate(16.54211853816969 19.05131073107168) rotate(0 131.50196838378906 17.5)"><text x="131.50196838378906" y="0" font-family="Virgil, Segoe UI Emoji" font-size="28px" fill="#1e1e1e" text-anchor="middle" style="white-space: pre;" direction="ltr" dominant-baseline="text-before-edge">Работа с сервером</text></g><g transform="translate(698.9585872025721 10) rotate(0 137.7599639892578 17.5)"><text x="137.7599639892578" y="0" font-family="Virgil, Segoe UI Emoji" font-size="28px" fill="#1e1e1e" text-anchor="middle" style="white-space: pre;" direction="ltr" dominant-baseline="text-before-edge">Работа с браузером</text></g><g transform="translate(1187.277782707194 212.98550023317193) rotate(0 140.50396728515625 17.5)"><text x="140.50396728515625" y="0" font-family="Virgil, Segoe UI Emoji" font-size="28px" fill="#1e1e1e" text-anchor="middle" style="white-space: pre;" direction="ltr" dominant-baseline="text-before-edge">А вот тут уже TTI</text></g><g stroke-linecap="round"><g transform="translate(1048.803603350697 229.81261592659735) rotate(0 -49.72342988283333 47.68366043428398)"><path d="M1.09 -0.27 C-8.96 11.55, -43.28 54.37, -60.1 70.55 C-76.93 86.74, -93.24 92.63, -99.85 96.83 M0.2 -1.46 C-9.99 10.59, -44.05 55.88, -60.84 71.97 C-77.63 88.05, -94.11 90.91, -100.54 95.05" stroke="#1e1e1e" stroke-width="4" fill="none"></path></g><g transform="translate(1048.803603350697 229.81261592659735) rotate(0 -49.72342988283333 47.68366043428398)"><path d="M-84.36 79.31 C-89.63 84.26, -92.71 89.6, -100.51 93.26 M-84.14 78.13 C-89.51 83.9, -94.32 90.91, -99.62 94.27" stroke="#1e1e1e" stroke-width="4" fill="none"></path></g><g transform="translate(1048.803603350697 229.81261592659735) rotate(0 -49.72342988283333 47.68366043428398)"><path d="M-77.7 93.84 C-85.04 94.24, -90.23 94.96, -100.51 93.26 M-77.48 92.65 C-85.21 93.47, -92.29 95.52, -99.62 94.27" stroke="#1e1e1e" stroke-width="4" fill="none"></path></g></g><mask></mask><g stroke-linecap="round"><g transform="translate(1339.8564622782392 260.72483071817135) rotate(0 -83.20937593518465 57.69893062879879)"><path d="M0.24 -1.01 C-12.05 10.95, -45.95 51.32, -73.59 70.65 C-101.22 89.98, -150.23 107.8, -165.57 114.97 M-1.09 1.07 C-13.45 12.83, -46.33 49.89, -73.92 69.12 C-101.52 88.34, -151.36 108.9, -166.66 116.41" stroke="#1e1e1e" stroke-width="4" fill="none"></path></g><g transform="translate(1339.8564622782392 260.72483071817135) rotate(0 -83.20937593518465 57.69893062879879)"><path d="M-147 97.27 C-150.34 100.94, -158.52 107.44, -168.45 115.64 M-145.11 95.93 C-153.52 103.83, -160.63 111.34, -166.84 115.93" stroke="#1e1e1e" stroke-width="4" fill="none"></path></g><g transform="translate(1339.8564622782392 260.72483071817135) rotate(0 -83.20937593518465 57.69893062879879)"><path d="M-138.45 115.93 C-144.29 113.76, -155.15 114.41, -168.45 115.64 M-136.56 114.58 C-148.25 115.46, -158.58 115.96, -166.84 115.93" stroke="#1e1e1e" stroke-width="4" fill="none"></path></g></g><mask></mask><g stroke-linecap="round" transform="translate(158.3877726170483 723.5346505960529) rotate(0 168.97593079107287 62.89945068067834)"><path d="M30.33 -1.4 L305.73 0.73 L319.49 2.72 L330.07 9.06 L336.24 16.87 L337.37 23.01 L337.44 94.64 L335.64 107.31 L330.8 118.17 L323.78 122.43 L322.22 124.76 L306.96 127.06 L30.94 123.84 L15.76 122.2 L7.71 118.9 L2.58 108.77 L0.29 102.6 L0.48 22.24 L2.8 10.96 L6.2 6.54 L18.55 2.99 L31.53 -0.28" stroke="none" stroke-width="0" fill="#ffffff"></path><path d="M31.45 0 M31.45 0 C97.6 1.62, 161.89 -0.95, 306.5 0 M31.45 0 C90.58 -0.38, 149.45 -0.88, 306.5 0 M306.5 0 C327.17 1.23, 335.98 11.14, 337.95 31.45 M306.5 0 C326.49 1.43, 338.82 10.69, 337.95 31.45 M337.95 31.45 C337.75 50.6, 336.43 68.03, 337.95 94.35 M337.95 31.45 C337.21 51.67, 337.65 72.16, 337.95 94.35 M337.95 94.35 C336.07 114.66, 328.43 126.53, 306.5 125.8 M337.95 94.35 C337.19 115.12, 329.76 127.54, 306.5 125.8 M306.5 125.8 C235.14 124.84, 161.93 125.12, 31.45 125.8 M306.5 125.8 C200.18 124.02, 93.7 123.58, 31.45 125.8 M31.45 125.8 C9.52 124.63, -1.3 114.62, 0 94.35 M31.45 125.8 C12.4 127.25, -0.91 117.36, 0 94.35 M0 94.35 C0.55 78.61, -1.09 63.59, 0 31.45 M0 94.35 C1.05 70.5, 1.15 46.92, 0 31.45 M0 31.45 C1.25 10.86, 10.2 0.13, 31.45 0 M0 31.45 C-1.42 12.64, 10.17 -0.69, 31.45 0" stroke="#1e1e1e" stroke-width="4" fill="none"></path></g><g transform="translate(245.4637323998204 751.4341012767312) rotate(0 81.89997100830078 35)"><text x="81.89997100830078" y="0" font-family="Virgil, Segoe UI Emoji" font-size="28px" fill="#1e1e1e" text-anchor="middle" style="white-space: pre;" direction="ltr" dominant-baseline="text-before-edge">Приложение</text><text x="81.89997100830078" y="35" font-family="Virgil, Segoe UI Emoji" font-size="28px" fill="#1e1e1e" text-anchor="middle" style="white-space: pre;" direction="ltr" dominant-baseline="text-before-edge">на сервере</text></g><g stroke-linecap="round" transform="translate(895.0645234065289 731.4371530507408) rotate(0 168.97593079107287 62.89945068067834)"><path d="M32.24 -0.48 L308.29 -1.52 L322.08 1.53 L329.27 9.19 L335.3 17.13 L335.79 23.26 L336.39 94.28 L335.51 107.8 L328.68 117.5 L326.96 121.65 L321.68 122.46 L306.91 125.88 L30.28 124.96 L17.59 123.87 L8.83 118.89 L3.01 106.9 L0.74 103.25 L-0.15 24.83 L3.73 12.46 L8.51 7.95 L16.75 3.89 L32.36 0.71" stroke="none" stroke-width="0" fill="#ffffff"></path><path d="M31.45 0 M31.45 0 C95.76 1.28, 159.38 3.02, 306.5 0 M31.45 0 C89.59 1.51, 147.14 2.43, 306.5 0 M306.5 0 C326.59 -0.55, 339.22 10.53, 337.95 31.45 M306.5 0 C329.16 -1.86, 335.78 10.7, 337.95 31.45 M337.95 31.45 C337.26 45.87, 338.45 58.71, 337.95 94.35 M337.95 31.45 C337.31 54.55, 337.98 78.71, 337.95 94.35 M337.95 94.35 C339.78 116.7, 325.97 126.67, 306.5 125.8 M337.95 94.35 C338.21 113.19, 328.51 123.68, 306.5 125.8 M306.5 125.8 C201.55 123.98, 96.01 123.37, 31.45 125.8 M306.5 125.8 C203.47 126.87, 100.46 127.43, 31.45 125.8 M31.45 125.8 C9.17 127.49, -1.71 115.67, 0 94.35 M31.45 125.8 C8.67 124.19, 0.09 116.55, 0 94.35 M0 94.35 C-0.91 71.14, -1.35 45.22, 0 31.45 M0 94.35 C0.14 76.26, -0.61 58.18, 0 31.45 M0 31.45 C-0.15 11.93, 11.42 -1.85, 31.45 0 M0 31.45 C1.24 9.87, 10.24 -2.03, 31.45 0" stroke="#1e1e1e" stroke-width="4" fill="none"></path></g><g transform="translate(982.140483189301 759.3366037314191) rotate(0 81.89997100830078 35)"><text x="81.89997100830078" y="0" font-family="Virgil, Segoe UI Emoji" font-size="28px" fill="#1e1e1e" text-anchor="middle" style="white-space: pre;" direction="ltr" dominant-baseline="text-before-edge">Приложение</text><text x="81.89997100830078" y="35" font-family="Virgil, Segoe UI Emoji" font-size="28px" fill="#1e1e1e" text-anchor="middle" style="white-space: pre;" direction="ltr" dominant-baseline="text-before-edge">на клиенте</text></g><g stroke-linecap="round"><g transform="translate(514.3169714600278 841.0030050264324) rotate(0 182.78617414911366 12.327657635235198)"><path d="M-1.19 -0.95 C29.25 3.42, 121.13 26.08, 182.46 26.01 C243.79 25.94, 335.87 3.08, 366.77 -1.36" stroke="#1e1e1e" stroke-width="4.5" fill="none" stroke-dasharray="8 12"></path></g><g transform="translate(514.3169714600278 841.0030050264324) rotate(0 182.78617414911366 12.327657635235198)"><path d="M339.38 15.38 C349.69 9.33, 355.43 6.71, 367.8 -1.5" stroke="#1e1e1e" stroke-width="4.5" fill="none"></path></g><g transform="translate(514.3169714600278 841.0030050264324) rotate(0 182.78617414911366 12.327657635235198)"><path d="M335.59 -4.79 C346.95 -5.06, 353.77 -1.94, 367.8 -1.5" stroke="#1e1e1e" stroke-width="4.5" fill="none"></path></g></g><mask></mask><g stroke-linecap="round"><g transform="translate(870.5569205086706 746.3149494045342) rotate(0 -180.40105678866598 -9.355699218574728)"><path d="M-0.75 0.09 C-31.74 -3.99, -126.05 -24.75, -185.94 -23.9 C-245.83 -23.04, -331.08 0.19, -360.06 5.21" stroke="#1e1e1e" stroke-width="4.5" fill="none" stroke-dasharray="8 12"></path></g><g transform="translate(870.5569205086706 746.3149494045342) rotate(0 -180.40105678866598 -9.355699218574728)"><path d="M-334.49 -11.15 C-342.86 -7.7, -350.52 -2.49, -359.1 5.8" stroke="#1e1e1e" stroke-width="4.5" fill="none"></path></g><g transform="translate(870.5569205086706 746.3149494045342) rotate(0 -180.40105678866598 -9.355699218574728)"><path d="M-330.2 8.92 C-339.96 6.32, -348.91 5.51, -359.1 5.8" stroke="#1e1e1e" stroke-width="4.5" fill="none"></path></g></g><mask></mask></svg>
